<?xml version="1.0" standalone="no"?>
<!DOCTYPE svg PUBLIC "-//W3C//DTD SVG 20010904//EN"
 "http://www.w3.org/TR/2001/REC-SVG-20010904/DTD/svg10.dtd">
<svg version="1.0" xmlns="http://www.w3.org/2000/svg"
 width="600.000000pt" height="170.000000pt" viewBox="0 0 600.000000 170.000000"
 preserveAspectRatio="xMidYMid meet">

<g transform="translate(0.000000,170.000000) scale(0.100000,-0.100000)"
fill="#000000" stroke="none">
<path d="M689 1684 c-191 -38 -377 -149 -496 -297 -271 -336 -253 -805 42
-1116 227 -240 540 -322 875 -231 57 15 165 69 238 119 65 44 179 160 219 224
88 140 140 314 140 467 0 116 -34 263 -87 370 -89 183 -251 336 -439 415 -144
60 -339 80 -492 49z m-23 -280 c72 -34 136 -94 164 -152 l23 -49 24 48 c40 79
136 153 240 183 19 6 22 2 29 -40 16 -110 -16 -222 -85 -297 -44 -48 -165
-110 -211 -109 -81 2 -216 100 -260 189 -25 50 -40 184 -26 238 8 30 18 29
102 -11z m49 -419 c61 -38 103 -90 125 -157 11 -32 19 -44 19 -30 2 66 77 162
156 198 60 28 165 32 221 9 180 -75 229 -304 96 -447 -45 -48 -125 -88 -177
-88 -21 0 -25 -5 -25 -30 0 -72 -85 -181 -168 -218 -61 -26 -167 -21 -228 10
-80 42 -137 116 -150 196 -6 38 -8 40 -53 46 -95 13 -187 90 -219 185 -7 19
-12 62 -12 96 0 105 63 199 164 247 32 14 59 18 122 16 69 -3 87 -7 129 -33z"/>
<path d="M525 916 c-10 -7 -16 -20 -12 -29 8 -22 126 -22 134 0 14 36 -81 59
-122 29z"/>
<path d="M1184 887 c-6 -16 77 -105 94 -100 38 14 -18 113 -64 113 -14 0 -27
-6 -30 -13z"/>
<path d="M755 641 c-45 -19 -76 -80 -50 -101 12 -10 22 -4 61 34 38 38 44 49
34 61 -14 17 -17 17 -45 6z"/>
<path d="M2462 1308 c-9 -9 -12 -100 -12 -350 0 -323 1 -338 19 -348 26 -13
50 -3 62 27 5 13 9 163 9 331 0 262 -2 311 -16 330 -17 24 -43 29 -62 10z"/>
<path d="M3780 1310 c-13 -8 -15 -58 -18 -327 -2 -175 0 -328 3 -340 12 -48
85 -50 85 -3 0 17 5 16 58 -11 50 -27 65 -30 119 -27 118 7 199 95 210 225 13
160 -85 283 -224 283 -48 0 -124 -28 -137 -49 -19 -31 -26 -1 -26 112 0 125
-6 147 -39 147 -9 0 -23 -5 -31 -10z m314 -313 c82 -63 78 -229 -7 -291 -21
-16 -44 -21 -87 -21 -49 0 -65 5 -102 30 l-43 31 -3 106 -3 106 33 26 c49 37
78 46 130 42 32 -2 58 -12 82 -29z"/>
<path d="M1836 1264 c-3 -9 -6 -154 -6 -323 0 -225 3 -310 12 -319 19 -19 323
-16 379 3 80 28 119 85 119 170 0 25 -7 59 -15 75 -16 30 -74 80 -93 80 -19 0
-14 9 22 40 62 55 68 156 14 225 -42 54 -86 65 -264 65 -139 0 -163 -2 -168
-16z m318 -74 c44 -16 66 -46 66 -91 0 -84 -68 -115 -235 -107 l-70 3 -3 89
c-2 49 -1 95 2 103 6 16 200 19 240 3z m57 -303 c47 -31 61 -86 35 -135 -25
-48 -56 -57 -200 -57 l-131 0 -3 94 c-1 52 0 101 3 109 8 22 260 13 296 -11z"/>
<path d="M2685 1094 c-14 -15 -16 -40 -13 -199 3 -180 3 -182 31 -224 32 -49
76 -71 139 -71 47 0 115 27 137 53 20 25 41 21 41 -8 0 -31 32 -50 60 -35 19
10 20 21 20 245 0 224 -1 235 -20 245 -14 8 -26 8 -40 0 -19 -10 -20 -21 -20
-165 l0 -154 -32 -37 c-61 -69 -148 -85 -198 -36 -34 35 -44 105 -36 260 4 93
3 105 -15 123 -23 23 -33 24 -54 3z"/>
<path d="M3345 1091 c-90 -41 -143 -148 -132 -268 10 -108 71 -190 159 -214
104 -28 268 12 268 66 0 37 -25 45 -81 24 -117 -45 -229 -3 -253 94 l-6 27
160 0 c92 0 170 4 181 10 38 21 19 134 -34 204 -54 70 -176 97 -262 57z m166
-78 c29 -17 48 -44 60 -85 l8 -28 -140 0 c-89 0 -139 4 -139 10 0 21 28 76 48
93 42 38 108 42 163 10z"/>
<path d="M4455 1091 c-147 -67 -182 -307 -61 -427 27 -27 57 -46 86 -54 132
-36 331 34 261 91 -20 16 -24 16 -71 -2 -118 -45 -232 -3 -255 94 l-7 27 162
0 c92 0 170 4 181 10 38 21 19 134 -34 204 -54 70 -176 97 -262 57z m168 -79
c23 -14 67 -82 67 -105 0 -4 -63 -7 -140 -7 -90 0 -140 4 -140 10 0 21 28 76
48 93 43 38 108 42 165 9z"/>
<path d="M4898 1099 c-16 -9 -18 -32 -18 -244 0 -224 1 -235 20 -245 14 -8 26
-8 40 0 19 10 20 21 20 174 l0 164 35 31 c20 17 48 33 63 37 91 20 87 18 87
54 0 26 -5 36 -18 38 -38 7 -85 -9 -125 -44 -42 -36 -42 -36 -42 -10 0 23 -23
56 -38 56 -4 0 -15 -5 -24 -11z"/>
<path d="M5248 1099 c-16 -9 -18 -32 -18 -244 0 -221 1 -235 19 -245 26 -13
50 -3 62 27 5 13 9 91 9 173 l0 149 35 27 c20 15 57 31 82 35 62 12 80 30 65
64 -9 19 -19 25 -42 25 -34 0 -99 -30 -119 -54 -16 -19 -31 -12 -31 14 0 11
-9 24 -19 30 -23 12 -22 12 -43 -1z"/>
<path d="M5547 1092 c-10 -10 -17 -22 -17 -27 0 -4 41 -111 91 -236 l91 -229
-32 -84 c-18 -46 -30 -92 -28 -101 5 -27 34 -42 55 -29 15 9 283 652 283 679
0 7 -9 20 -19 29 -15 14 -24 15 -39 7 -11 -6 -22 -16 -25 -23 -46 -118 -140
-345 -146 -351 -4 -4 -38 73 -75 170 -60 157 -90 213 -116 213 -4 0 -14 -8
-23 -18z"/>
</g>
</svg>
